<?xml version="1.0" encoding="UTF-8" standalone="no"?><!DOCTYPE svg PUBLIC "-//W3C//DTD SVG 1.1//EN" "http://www.w3.org/Graphics/SVG/1.1/DTD/svg11.dtd"><svg width="100%" height="100%" viewBox="0 0 1625 363" version="1.1" xmlns="http://www.w3.org/2000/svg" xmlns:xlink="http://www.w3.org/1999/xlink" xml:space="preserve" xmlns:serif="http://www.serif.com/" style="fill-rule:evenodd;clip-rule:evenodd;stroke-linejoin:round;stroke-miterlimit:2;"><rect id="pizzaport-logo" x="-0" y="0" width="1625" height="362.5" style="fill:none;"/><g><g><path d="M92.009,88.686c15.757,0 30.397,2.035 43.922,6.106c13.524,4.07 25.145,10.307 34.861,18.711c9.717,8.403 17.332,18.973 22.847,31.71c5.515,12.736 8.272,27.902 8.272,45.497c0,16.807 -2.363,31.513 -7.09,44.118c-4.727,12.605 -11.424,23.175 -20.09,31.71c-8.666,8.535 -19.105,14.903 -31.316,19.105c-12.211,4.202 -25.801,6.302 -40.77,6.302c-11.292,0 -21.796,-1.706 -31.513,-5.12l-0,65.389c-2.626,0.788 -6.828,1.642 -12.605,2.561c-5.778,0.919 -11.686,1.378 -17.726,1.378c-5.778,0 -10.964,-0.394 -15.56,-1.181c-4.596,-0.788 -8.469,-2.364 -11.62,-4.727c-3.152,-2.364 -5.515,-5.581 -7.091,-9.651c-1.576,-4.071 -2.363,-9.388 -2.363,-15.954l-0,-189.078c-0,-7.091 1.51,-12.868 4.53,-17.332c3.02,-4.465 7.156,-8.535 12.408,-12.212c8.141,-5.252 18.251,-9.454 30.331,-12.605c12.08,-3.151 25.605,-4.727 40.573,-4.727Zm0.788,150.475c27.049,0 40.573,-16.15 40.573,-48.451c0,-16.807 -3.348,-29.281 -10.044,-37.422c-6.697,-8.141 -16.348,-12.211 -28.953,-12.211c-4.99,-0 -9.454,0.59 -13.393,1.772c-3.939,1.182 -7.353,2.561 -10.242,4.136l0,86.661c3.151,1.576 6.565,2.889 10.242,3.939c3.676,1.051 7.615,1.576 11.817,1.576Z" style="fill:#1b9300;fill-rule:nonzero;"/><path d="M206.736,41.608c-0,-9.98 3.348,-18.383 10.044,-25.211c6.697,-6.828 15.56,-10.242 26.589,-10.242c11.03,0 19.893,3.414 26.59,10.242c6.696,6.828 10.044,15.231 10.044,25.211c0,9.979 -3.348,18.382 -10.044,25.21c-6.697,6.828 -15.56,10.242 -26.59,10.242c-11.029,-0 -19.892,-3.414 -26.589,-10.242c-6.696,-6.828 -10.044,-15.231 -10.044,-25.21Zm70.116,244.226c-2.889,0.525 -7.156,1.247 -12.802,2.167c-5.646,0.919 -11.358,1.378 -17.135,1.378c-5.778,0 -10.964,-0.394 -15.56,-1.181c-4.596,-0.788 -8.469,-2.364 -11.62,-4.727c-3.152,-2.364 -5.581,-5.581 -7.288,-9.651c-1.707,-4.071 -2.56,-9.389 -2.56,-15.954l-0,-160.323c2.889,-0.525 7.156,-1.247 12.802,-2.166c5.646,-0.919 11.358,-1.379 17.135,-1.379c5.778,0 10.964,0.394 15.56,1.182c4.595,0.788 8.469,2.363 11.62,4.727c3.152,2.363 5.581,5.58 7.288,9.651c1.707,4.07 2.56,9.388 2.56,15.953l0,160.323Z" style="fill:#1b9300;fill-rule:nonzero;"/><path d="M782.549,243.685c4.464,0 9.388,-0.459 14.772,-1.378c5.383,-0.92 9.388,-2.167 12.014,-3.743l0,-31.513l-28.362,2.364c-7.353,0.525 -13.393,2.101 -18.12,4.727c-4.727,2.626 -7.09,6.565 -7.09,11.817c-0,5.252 2.035,9.52 6.106,12.802c4.07,3.283 10.964,4.924 20.68,4.924Zm-3.151,-154.808c14.181,0 27.114,1.445 38.8,4.333c11.686,2.889 21.665,7.288 29.938,13.196c8.272,5.909 14.64,13.393 19.104,22.453c4.465,9.061 6.697,19.762 6.697,32.104l0,88.237c0,6.828 -1.904,12.408 -5.712,16.741c-3.808,4.333 -8.338,8.076 -13.59,11.227c-17.069,10.242 -41.098,15.363 -72.086,15.363c-13.918,-0 -26.458,-1.313 -37.619,-3.94c-11.161,-2.626 -20.746,-6.565 -28.755,-11.817c-8.01,-5.252 -14.181,-11.949 -18.514,-20.09c-4.333,-8.14 -6.5,-17.594 -6.5,-28.361c0,-18.12 5.384,-32.039 16.151,-41.755c10.767,-9.717 27.442,-15.757 50.027,-18.12l51.602,-5.515l0,-2.757c0,-7.616 -3.348,-13.065 -10.045,-16.348c-6.696,-3.282 -16.347,-4.924 -28.952,-4.924c-9.979,0 -19.696,1.051 -29.15,3.152c-9.454,2.1 -17.989,4.727 -25.604,7.878c-3.414,-2.364 -6.303,-5.974 -8.666,-10.833c-2.364,-4.858 -3.546,-9.913 -3.546,-15.165c0,-6.828 1.642,-12.277 4.924,-16.348c3.283,-4.07 8.338,-7.55 15.166,-10.439c7.616,-2.888 16.61,-4.989 26.983,-6.302c10.373,-1.313 20.155,-1.97 29.347,-1.97Z" style="fill:#1b9300;fill-rule:nonzero;"/><path d="M974.718,88.877c15.756,0 30.397,2.035 43.921,6.106c13.524,4.07 25.145,10.307 34.861,18.711c9.717,8.403 17.333,18.973 22.847,31.71c5.515,12.736 8.273,27.902 8.273,45.497c-0,16.807 -2.364,31.513 -7.091,44.118c-4.727,12.605 -11.423,23.175 -20.089,31.71c-8.666,8.535 -19.105,14.903 -31.317,19.105c-12.211,4.202 -25.801,6.303 -40.77,6.303c-11.292,-0 -21.796,-1.707 -31.513,-5.121l0,65.389c-2.626,0.788 -6.828,1.642 -12.605,2.561c-5.777,0.919 -11.686,1.379 -17.726,1.379c-5.777,-0 -10.964,-0.394 -15.56,-1.182c-4.595,-0.788 -8.469,-2.364 -11.62,-4.727c-3.151,-2.364 -5.515,-5.581 -7.091,-9.651c-1.575,-4.07 -2.363,-9.388 -2.363,-15.953l0,-189.079c0,-7.09 1.51,-12.868 4.53,-17.332c3.02,-4.465 7.156,-8.535 12.408,-12.212c8.141,-5.252 18.252,-9.453 30.332,-12.605c12.08,-3.151 25.604,-4.727 40.573,-4.727Zm0.788,150.475c27.048,0 40.573,-16.15 40.573,-48.451c-0,-16.807 -3.349,-29.281 -10.045,-37.422c-6.697,-8.141 -16.348,-12.211 -28.953,-12.211c-4.989,-0 -9.454,0.591 -13.393,1.772c-3.939,1.182 -7.353,2.561 -10.242,4.136l0,86.661c3.152,1.576 6.566,2.889 10.242,3.94c3.677,1.05 7.616,1.575 11.818,1.575Z" style="fill:#be2500;fill-rule:nonzero;"/><path d="M1422.99,285.834c-2.626,0.788 -6.762,1.576 -12.408,2.364c-5.646,0.787 -11.489,1.181 -17.529,1.181c-5.777,0 -10.964,-0.394 -15.56,-1.181c-4.595,-0.788 -8.469,-2.364 -11.62,-4.727c-3.151,-2.364 -5.58,-5.581 -7.287,-9.651c-1.707,-4.071 -2.561,-9.389 -2.561,-15.954l0,-118.174c0,-6.04 1.116,-11.226 3.348,-15.559c2.233,-4.334 5.45,-8.207 9.651,-11.621c4.202,-3.414 9.389,-6.5 15.56,-9.257c6.171,-2.757 12.802,-5.186 19.893,-7.287c7.09,-2.101 14.443,-3.742 22.059,-4.924c7.615,-1.182 15.231,-1.773 22.847,-1.773c12.605,0 22.584,2.429 29.937,7.288c7.353,4.858 11.03,12.802 11.03,23.831c-0,3.677 -0.526,7.288 -1.576,10.833c-1.05,3.545 -2.363,6.762 -3.939,9.651c-5.515,-0 -11.161,0.262 -16.938,0.788c-5.778,0.525 -11.424,1.313 -16.939,2.363c-5.514,1.051 -10.701,2.167 -15.559,3.348c-4.859,1.182 -8.995,2.561 -12.409,4.137l0,134.324Z" style="fill:#be2500;fill-rule:nonzero;"/><path d="M1564.97,220.444c-0,6.828 2.166,11.687 6.499,14.575c4.333,2.889 10.439,4.333 18.317,4.333c3.939,0 8.01,-0.328 12.212,-0.985c4.201,-0.656 7.878,-1.51 11.029,-2.56c2.364,2.889 4.399,6.106 6.106,9.651c1.707,3.545 2.56,7.813 2.56,12.802c0,9.979 -3.742,18.12 -11.226,24.423c-7.485,6.302 -20.681,9.454 -39.589,9.454c-23.109,-0 -40.901,-5.252 -53.375,-15.757c-12.474,-10.504 -18.711,-27.574 -18.711,-51.209l0,-168.595c2.889,-0.787 7.025,-1.641 12.409,-2.56c5.383,-0.919 11.095,-1.379 17.135,-1.379c11.555,0 20.549,2.035 26.983,6.106c6.434,4.07 9.651,12.671 9.651,25.801l-0,25.211l51.602,-0c1.576,2.888 3.086,6.499 4.53,10.832c1.445,4.333 2.167,9.126 2.167,14.378c-0,9.191 -2.035,15.822 -6.106,19.893c-4.07,4.07 -9.519,6.105 -16.347,6.105l-35.846,0l-0,59.481Z" style="fill:#be2500;fill-rule:nonzero;"/></g><g><path d="M1245.54,100.155c-11.174,-3.877 -22.92,-5.857 -34.748,-5.857c-58.494,-0 -105.983,47.477 -105.983,105.954c0,58.478 47.489,105.955 105.983,105.955c58.493,-0 105.982,-47.477 105.982,-105.955c-0,-11.825 -1.98,-23.567 -5.859,-34.739l-100.123,34.739l34.748,-100.097Z" style="fill:#fcca05;"/><path d="M1331.11,144.302c-10.115,-28.802 -32.77,-51.45 -61.579,-61.563l-33.321,94.875l94.9,-33.312Z" style="fill:#fcca05;"/><g><path d="M1131.9,280.215c48.735,48.741 128.038,48.741 176.773,0c32.209,-32.208 44.348,-79.428 31.681,-123.224c-0.342,-1.186 -1.16,-2.176 -2.258,-2.738c-1.098,-0.558 -2.38,-0.65 -3.543,-0.222l-119.481,43.012l43.015,-119.48c0.419,-1.16 0.335,-2.442 -0.225,-3.54c-0.561,-1.099 -1.55,-1.919 -2.736,-2.263c-11.474,-3.318 -23.175,-4.936 -34.788,-4.936c-32.714,0 -64.668,12.843 -88.438,36.616c-23.61,23.608 -36.613,54.997 -36.613,88.387c-0,33.39 13.003,64.781 36.613,88.388Zm71.557,-77.273c-0.586,1.625 -0.179,3.447 1.045,4.668c1.225,1.22 3.041,1.63 4.67,1.042l98.416,-35.427c6.232,29.423 -2.791,60.358 -24.169,81.74c-34.81,34.807 -91.456,34.812 -126.27,-0c-34.813,-34.812 -34.813,-91.461 -0,-126.272c21.616,-21.616 51.966,-30.499 81.734,-24.156l-35.426,98.405Z" style="fill:#be2500;fill-rule:nonzero;"/><path d="M1234.54,177.552c1.22,1.22 3.036,1.643 4.659,1.046l103.119,-36.825c2.296,-0.819 3.508,-3.326 2.727,-5.638c-0.29,-0.854 -7.338,-21.2 -27.611,-41.476c-20.274,-20.273 -40.619,-27.318 -41.476,-27.61c-0.474,-0.161 -0.956,-0.236 -1.431,-0.236c-1.836,-0 -3.554,1.138 -4.205,2.965l-36.83,103.117c-0.58,1.623 -0.173,3.437 1.048,4.657Zm35.209,-79.626c10.172,3.797 19.308,9.563 27.084,17.335c7.775,7.775 13.537,16.908 17.333,27.085l-69.094,24.676l24.677,-69.096Z" style="fill:#be2500;fill-rule:nonzero;"/><path d="M1251.85,267.589c8.702,-8.701 8.702,-22.866 0,-31.568c-4.351,-4.351 -10.067,-6.527 -15.781,-6.527c-5.718,0 -11.434,2.176 -15.785,6.527c-8.701,8.702 -8.701,22.867 0,31.568c8.702,8.702 22.863,8.697 31.566,0Z" style="fill:#be2500;fill-rule:nonzero;"/><path d="M1191.87,122.158c-5.961,-0 -11.566,2.323 -15.782,6.539c-4.215,4.215 -6.537,9.818 -6.537,15.781c-0,5.964 2.321,11.567 6.537,15.782c4.216,4.216 9.821,6.539 15.782,6.539c5.964,-0 11.569,-2.323 15.784,-6.539c4.216,-4.215 6.538,-9.818 6.538,-15.782c-0,-5.963 -2.321,-11.566 -6.538,-15.781c-4.215,-4.216 -9.82,-6.539 -15.784,-6.539Z" style="fill:#be2500;fill-rule:nonzero;"/><path d="M1182.4,191.828c-4.353,-4.35 -10.067,-6.526 -15.784,-6.526c-5.716,-0 -11.433,2.176 -15.784,6.526c-8.702,8.702 -8.702,22.867 0,31.569c8.704,8.701 22.864,8.701 31.568,-0c8.702,-8.703 8.702,-22.867 0,-31.569Z" style="fill:#be2500;fill-rule:nonzero;"/><path d="M1271.77,235.001c4.714,-0.471 13.739,-4.542 14.178,-16.562c0.089,-2.463 -1.836,-4.534 -4.299,-4.621c-0.057,-0.005 -0.111,-0.005 -0.166,-0.005c-2.391,0 -4.37,1.892 -4.459,4.304c-0.244,6.696 -4.791,7.82 -6.195,8.004c-2.426,0.274 -4.19,2.446 -3.946,4.882c0.247,2.456 2.44,4.212 4.887,3.998Z" style="fill:#be2500;fill-rule:nonzero;"/><path d="M1190.49,228.55c-1.011,-0 -2.027,0.34 -2.862,1.041c-1.892,1.583 -2.143,4.394 -0.561,6.286c4.299,5.137 1.675,9.013 0.753,10.093c-1.621,1.822 -1.478,4.616 0.334,6.264c1.819,1.665 4.649,1.526 6.305,-0.296c3.188,-3.501 7.176,-12.564 -0.542,-21.79c-0.882,-1.053 -2.151,-1.598 -3.427,-1.598Z" style="fill:#be2500;fill-rule:nonzero;"/><path d="M1153.1,167.056c-1.621,1.827 -1.478,4.622 0.334,6.27c1.819,1.651 4.646,1.517 6.305,-0.301c3.187,-3.505 7.176,-12.569 -0.542,-21.794c-0.884,-1.055 -2.152,-1.6 -3.427,-1.6c-1.011,0 -2.027,0.341 -2.862,1.042c-1.892,1.583 -2.143,4.394 -0.561,6.286c4.302,5.141 1.672,9.021 0.753,10.097Z" style="fill:#be2500;fill-rule:nonzero;"/><path d="M1289.81,129.015c-1.694,-0.911 -4.305,-1.727 -7.286,-1.727c-4.365,-0 -9.52,1.753 -13.729,7.528c-1.453,1.993 -1.014,4.782 0.978,6.238c1.997,1.448 4.782,1.008 6.237,-0.981c3.95,-5.415 8.346,-3.806 9.615,-3.174c2.163,1.147 4.841,0.318 5.999,-1.84c1.168,-2.169 0.357,-4.876 -1.814,-6.044Z" style="fill:#be2500;fill-rule:nonzero;"/></g></g></g><path d="M299.472,108.679c22.222,-31.803 66.258,-41.385 98.265,-20.998l56.064,35.677c15.29,9.582 25.891,25.28 28.949,43.016c2.65,14.883 0.408,30.173 -6.728,43.424c4.893,7.34 8.155,15.494 9.582,24.057c3.262,18.144 -1.019,36.9 -11.62,51.782c-22.426,32.008 -66.461,41.386 -98.265,21.203l-56.064,-35.677c-15.29,-9.582 -25.891,-25.28 -28.949,-43.017c-2.65,-14.882 -0.408,-30.172 6.728,-43.424c-4.893,-7.339 -8.155,-15.494 -9.582,-24.056c-3.466,-18.348 0.815,-36.9 11.62,-51.987Zm103.769,180.016c18.145,4.689 37.104,-2.446 47.706,-17.736c6.523,-8.97 8.97,-20.183 7.135,-31.192c-0.408,-1.835 -0.815,-3.466 -1.223,-5.301l-1.02,-3.262l-2.854,2.039c-6.727,4.893 -14.067,8.563 -22.017,11.009l-2.039,0.612l0.204,2.038c0.204,2.854 -0.612,5.913 -2.243,8.359c-3.262,4.689 -8.97,6.931 -14.475,5.504c-1.223,-0.407 -2.446,-0.815 -3.465,-1.427l-55.86,-35.677c-2.854,-1.834 -4.689,-4.485 -5.301,-7.747c-0.611,-3.262 0.204,-6.727 2.039,-9.378c3.262,-4.689 8.97,-6.727 14.475,-5.3c1.223,0.408 2.446,0.815 3.465,1.427l21.406,13.659c3.466,2.243 7.34,3.874 11.417,4.893c18.144,4.689 37.104,-2.447 47.705,-17.737c6.32,-8.97 8.971,-20.183 6.932,-31.192c-1.835,-10.601 -8.359,-20.183 -17.533,-25.891l-55.86,-35.677c-3.466,-2.242 -7.339,-3.873 -11.416,-5.097c-18.145,-4.689 -37.104,2.447 -47.706,17.737c-6.523,8.97 -8.97,20.183 -7.135,31.192c0.408,1.835 0.815,3.466 1.427,5.3l0.815,3.262l2.855,-2.038c6.727,-4.893 14.067,-8.563 22.017,-11.009l2.039,-0.612l-0.204,-2.039c-0.204,-2.854 0.612,-5.912 2.243,-8.358c3.262,-4.689 8.97,-6.728 14.474,-5.301c1.224,0.408 2.447,0.816 3.466,1.427l55.86,35.677c2.854,1.631 4.689,4.485 5.301,7.747c0.611,3.262 -0.204,6.728 -2.039,9.378c-3.262,4.689 -8.97,6.728 -14.475,5.301c-1.223,-0.408 -2.446,-0.816 -3.465,-1.427l-21.406,-13.659c-3.466,-2.243 -7.34,-3.874 -11.417,-5.097c-18.144,-4.689 -37.104,2.446 -47.705,17.736c-6.524,8.971 -8.971,20.183 -7.136,31.192c1.835,10.602 8.359,20.183 17.533,25.892l55.86,35.677c3.67,2.242 7.543,4.077 11.62,5.096Z" style="fill:#1b9300;fill-rule:nonzero;"/><path d="M500.924,108.679c22.222,-31.803 66.257,-41.385 98.265,-20.998l56.064,35.677c15.29,9.582 25.891,25.28 28.949,43.016c2.65,14.883 0.408,30.173 -6.728,43.424c4.893,7.34 8.155,15.494 9.582,24.057c3.262,18.144 -1.019,36.9 -11.62,51.782c-22.426,32.008 -66.462,41.386 -98.265,21.203l-56.064,-35.677c-15.29,-9.582 -25.891,-25.28 -28.949,-43.017c-2.65,-14.882 -0.408,-30.172 6.727,-43.424c-4.892,-7.339 -8.154,-15.494 -9.581,-24.056c-3.466,-18.348 0.815,-36.9 11.62,-51.987Zm103.769,180.016c18.145,4.689 37.104,-2.446 47.705,-17.736c6.524,-8.97 8.971,-20.183 7.136,-31.192c-0.408,-1.835 -0.816,-3.466 -1.223,-5.301l-1.02,-3.262l-2.854,2.039c-6.728,4.893 -14.067,8.563 -22.018,11.009l-2.038,0.612l0.204,2.038c0.203,2.854 -0.612,5.913 -2.243,8.359c-3.262,4.689 -8.97,6.931 -14.475,5.504c-1.223,-0.407 -2.446,-0.815 -3.465,-1.427l-55.86,-35.677c-2.855,-1.834 -4.689,-4.485 -5.301,-7.747c-0.612,-3.262 0.204,-6.727 2.039,-9.378c3.262,-4.689 8.97,-6.727 14.474,-5.3c1.224,0.408 2.447,0.815 3.466,1.427l21.406,13.659c3.466,2.243 7.34,3.874 11.417,4.893c18.144,4.689 37.104,-2.447 47.705,-17.737c6.32,-8.97 8.97,-20.183 6.932,-31.192c-1.835,-10.601 -8.359,-20.183 -17.533,-25.891l-55.86,-35.677c-3.466,-2.242 -7.339,-3.873 -11.417,-5.097c-18.144,-4.689 -37.104,2.447 -47.705,17.737c-6.524,8.97 -8.97,20.183 -7.135,31.192c0.408,1.835 0.815,3.466 1.427,5.3l0.815,3.262l2.854,-2.038c6.728,-4.893 14.067,-8.563 22.018,-11.009l2.039,-0.612l-0.204,-2.039c-0.204,-2.854 0.612,-5.912 2.243,-8.358c3.262,-4.689 8.97,-6.728 14.474,-5.301c1.224,0.408 2.447,0.816 3.466,1.427l55.86,35.677c2.854,1.631 4.689,4.485 5.301,7.747c0.611,3.262 -0.204,6.728 -2.039,9.378c-3.262,4.689 -8.97,6.728 -14.475,5.301c-1.223,-0.408 -2.446,-0.816 -3.465,-1.427l-21.407,-13.659c-3.465,-2.243 -7.339,-3.874 -11.416,-5.097c-18.145,-4.689 -37.104,2.446 -47.706,17.736c-6.523,8.971 -8.97,20.183 -7.135,31.192c1.835,10.602 8.359,20.183 17.533,25.892l55.86,35.677c3.669,2.242 7.543,4.077 11.62,5.096Z" style="fill:#1b9300;fill-rule:nonzero;"/></svg>