<?xml version="1.0" encoding="UTF-8" standalone="no"?><!DOCTYPE svg PUBLIC "-//W3C//DTD SVG 1.1//EN" "http://www.w3.org/Graphics/SVG/1.1/DTD/svg11.dtd"><svg width="100%" height="100%" viewBox="0 0 250 250" version="1.1" xmlns="http://www.w3.org/2000/svg" xmlns:xlink="http://www.w3.org/1999/xlink" xml:space="preserve" xmlns:serif="http://www.serif.com/" style="fill-rule:evenodd;clip-rule:evenodd;stroke-linejoin:round;stroke-miterlimit:2;"><rect id="pizzaport-icon" x="-0" y="0" width="250" height="249.958" style="fill:none;"/><clipPath id="_clip1"><rect x="-0" y="0" width="250" height="249.958"/></clipPath><g clip-path="url(#_clip1)"><g><path d="M150.257,33.342c-11.174,-3.877 -22.92,-5.857 -34.748,-5.857c-58.494,-0 -105.983,47.477 -105.983,105.954c0,58.478 47.489,105.955 105.983,105.955c58.493,-0 105.982,-47.477 105.982,-105.955c-0,-11.825 -1.98,-23.567 -5.859,-34.739l-100.123,34.739l34.748,-100.097Z" style="fill:#fcca05;"/><path d="M235.827,77.489c-10.115,-28.802 -32.77,-51.45 -61.579,-61.563l-33.321,94.875l94.9,-33.312Z" style="fill:#fcca05;"/><g><path d="M36.613,213.402c48.735,48.741 128.038,48.741 176.773,0c32.209,-32.208 44.348,-79.428 31.681,-123.224c-0.342,-1.186 -1.16,-2.176 -2.258,-2.738c-1.098,-0.558 -2.38,-0.65 -3.543,-0.222l-119.481,43.012l43.015,-119.48c0.419,-1.16 0.336,-2.442 -0.225,-3.54c-0.561,-1.099 -1.55,-1.919 -2.735,-2.263c-11.475,-3.318 -23.176,-4.936 -34.789,-4.936c-32.714,0 -64.668,12.843 -88.438,36.616c-23.61,23.608 -36.613,54.997 -36.613,88.387c0,33.39 13.003,64.781 36.613,88.388Zm71.557,-77.273c-0.586,1.625 -0.179,3.447 1.045,4.668c1.225,1.22 3.041,1.63 4.67,1.042l98.416,-35.426c6.232,29.422 -2.791,60.357 -24.169,81.739c-34.81,34.807 -91.456,34.812 -126.27,-0c-34.812,-34.812 -34.812,-91.461 -0,-126.272c21.616,-21.616 51.966,-30.499 81.734,-24.156l-35.426,98.405Z" style="fill:#be2500;fill-rule:nonzero;"/><path d="M139.258,110.739c1.22,1.22 3.036,1.643 4.659,1.046l103.119,-36.825c2.296,-0.819 3.508,-3.326 2.727,-5.637c-0.29,-0.855 -7.338,-21.201 -27.611,-41.477c-20.274,-20.273 -40.619,-27.318 -41.476,-27.61c-0.474,-0.161 -0.956,-0.236 -1.431,-0.236c-1.836,0 -3.554,1.138 -4.205,2.965l-36.83,103.117c-0.58,1.623 -0.173,3.437 1.048,4.657Zm35.209,-79.626c10.172,3.797 19.308,9.563 27.084,17.335c7.775,7.775 13.537,16.908 17.333,27.085l-69.094,24.676l24.677,-69.096Z" style="fill:#be2500;fill-rule:nonzero;"/><path d="M156.565,200.776c8.702,-8.701 8.702,-22.866 0,-31.568c-4.351,-4.351 -10.067,-6.527 -15.781,-6.527c-5.718,0 -11.434,2.176 -15.785,6.527c-8.701,8.702 -8.701,22.867 0,31.568c8.702,8.702 22.863,8.697 31.566,0Z" style="fill:#be2500;fill-rule:nonzero;"/><path d="M96.587,55.345c-5.961,-0 -11.566,2.323 -15.782,6.539c-4.215,4.215 -6.537,9.818 -6.537,15.781c-0,5.964 2.321,11.567 6.537,15.782c4.216,4.216 9.821,6.539 15.782,6.539c5.964,0 11.569,-2.323 15.784,-6.539c4.216,-4.215 6.538,-9.818 6.538,-15.782c-0,-5.963 -2.321,-11.566 -6.538,-15.781c-4.215,-4.216 -9.82,-6.539 -15.784,-6.539Z" style="fill:#be2500;fill-rule:nonzero;"/><path d="M87.118,125.015c-4.353,-4.35 -10.067,-6.526 -15.784,-6.526c-5.716,-0 -11.433,2.176 -15.784,6.526c-8.701,8.702 -8.701,22.867 0,31.569c8.704,8.701 22.864,8.701 31.568,-0c8.702,-8.703 8.702,-22.867 0,-31.569Z" style="fill:#be2500;fill-rule:nonzero;"/><path d="M176.481,168.189c4.714,-0.472 13.739,-4.543 14.178,-16.563c0.089,-2.463 -1.836,-4.534 -4.299,-4.621c-0.057,-0.005 -0.111,-0.005 -0.166,-0.005c-2.391,0 -4.37,1.892 -4.459,4.304c-0.244,6.696 -4.791,7.82 -6.195,8.004c-2.426,0.274 -4.19,2.446 -3.946,4.883c0.247,2.455 2.44,4.211 4.887,3.998Z" style="fill:#be2500;fill-rule:nonzero;"/><path d="M95.207,161.737c-1.011,-0 -2.027,0.34 -2.862,1.041c-1.892,1.583 -2.143,4.394 -0.561,6.286c4.299,5.137 1.675,9.013 0.753,10.093c-1.621,1.822 -1.478,4.616 0.334,6.264c1.819,1.665 4.649,1.526 6.305,-0.296c3.188,-3.501 7.176,-12.564 -0.542,-21.79c-0.882,-1.053 -2.151,-1.598 -3.427,-1.598Z" style="fill:#be2500;fill-rule:nonzero;"/><path d="M57.813,100.243c-1.621,1.827 -1.478,4.622 0.334,6.27c1.819,1.651 4.646,1.517 6.305,-0.301c3.187,-3.505 7.176,-12.569 -0.542,-21.794c-0.884,-1.055 -2.152,-1.599 -3.427,-1.599c-1.011,-0 -2.027,0.34 -2.862,1.041c-1.892,1.583 -2.143,4.394 -0.561,6.286c4.302,5.141 1.673,9.021 0.753,10.097Z" style="fill:#be2500;fill-rule:nonzero;"/><path d="M194.521,62.202c-1.694,-0.911 -4.305,-1.727 -7.286,-1.727c-4.365,0 -9.52,1.753 -13.729,7.528c-1.453,1.993 -1.014,4.783 0.978,6.238c1.997,1.448 4.782,1.008 6.237,-0.981c3.95,-5.415 8.346,-3.806 9.615,-3.174c2.163,1.147 4.841,0.318 5.999,-1.84c1.168,-2.169 0.357,-4.876 -1.814,-6.044Z" style="fill:#be2500;fill-rule:nonzero;"/></g></g></g></svg>